<svg width="64" height="64" viewBox="0 0 64 64" fill="none" xmlns="http://www.w3.org/2000/svg">
<g clip-path="url(#clip0_850_49)">
<path d="M32.0157 0.641473C32.0411 1.25048 33.4621 5.53893 34.0204 6.63008C34.3249 7.23909 34.6802 7.64509 34.807 7.56897C34.9593 7.46747 35.0608 5.91956 35.0608 4.04178V0.666848L34.1219 0.48922C32.6501 0.260841 32.0157 0.311592 32.0157 0.641473Z" fill="#254119"/>
<path d="M28.59 4.19393C29.0214 13.5828 29.3005 15.2576 30.6961 17.4907C31.4067 18.6326 32.4978 19.4446 32.9546 19.1654C33.2337 18.9624 33.6143 17.4399 34.0457 14.6486L34.3248 12.8723L33.2083 9.95416C32.5739 8.3555 31.5335 5.61496 30.8484 3.83868C29.7573 0.971252 29.5289 0.59062 29.0214 0.59062H28.4124L28.59 4.19393Z" fill="#254119"/>
<path d="M37.2177 1.17433C37.1669 1.35196 37.0654 2.82373 36.9893 4.47313C36.9132 6.12254 36.7355 7.94957 36.6087 8.53321C36.4818 9.11684 36.2788 10.3602 36.2026 11.2991C36.0504 12.7202 36.0758 13.0247 36.3803 13.0247C37.4968 13.0247 38.8417 10.2587 38.9939 7.56894C39.0193 7.13756 39.1716 5.61503 39.3492 4.16863C39.5268 2.72223 39.5522 1.45346 39.4507 1.35196C39.0447 0.996699 37.3192 0.869823 37.2177 1.17433Z" fill="#254119"/>
<path d="M24.53 1.35192C24.3524 1.63105 24.8599 4.39698 25.6973 7.82266C26.2555 10.0811 27.0675 12.0096 27.4482 12.0096C27.778 12.0096 27.778 12.2126 27.1944 8.07642C26.9153 6.12251 26.6108 3.78797 26.5093 2.87445C26.3063 1.25042 26.2809 1.22505 25.4942 1.14892C25.0629 1.09817 24.6315 1.19967 24.53 1.35192Z" fill="#254119"/>
<path d="M20.0893 2.62084C19.4803 2.92534 18.922 3.1791 18.8713 3.22985C18.7952 3.33135 21.8148 8.88857 22.3731 9.62446C23.312 10.8679 25.7227 12.1366 25.342 11.1724C25.2913 11.0201 24.8599 9.72596 24.4285 8.33031C23.9971 6.93466 23.515 5.56439 23.3881 5.28526C23.2612 5.00613 22.9314 4.19411 22.6522 3.50898C22.094 2.01183 21.7133 1.88495 20.0893 2.62084Z" fill="#254119"/>
<path d="M42.0643 2.31635C41.9121 2.5701 40.6433 7.84819 40.6433 8.2542C40.6433 8.96471 41.3538 8.02582 42.5718 5.6659C43.663 3.55974 43.866 2.95073 43.6376 2.72235C43.1809 2.29097 42.242 2.06259 42.0643 2.31635Z" fill="#254119"/>
<path d="M43.7899 6.95999C41.4554 9.90354 39.8821 12.6441 39.8821 13.786C39.8821 14.5472 40.2373 14.4204 41.1001 13.3292C44.5765 9.09152 47.7231 4.9807 47.7485 4.75232C47.7485 4.52395 46.7334 3.88956 46.3528 3.88956C46.2767 3.88956 45.1348 5.28521 43.7899 6.95999Z" fill="#254119"/>
<path d="M16.283 4.39693C16.0038 4.57456 15.9785 4.75219 16.1561 5.00594C16.3083 5.20894 17.0442 6.24934 17.8309 7.34048C21.1297 11.9588 24.4539 20.6626 25.0375 26.2706C25.2151 27.8185 25.5704 28.123 26.1033 27.2348C26.5093 26.6258 27.0422 23.5046 27.4482 19.7491C27.7019 17.2877 27.6765 16.7801 27.3213 15.689C26.7884 14.1157 26.5093 13.7858 25.7988 13.7858C24.2762 13.7858 21.6879 11.1975 18.6429 6.60459C17.7294 5.2597 16.9174 4.14318 16.8412 4.14318C16.7397 4.14318 16.486 4.27005 16.283 4.39693Z" fill="#254119"/>
<path d="M48.1037 7.74647C47.2917 8.76149 46.5812 9.64963 46.5051 9.72575C46.4036 9.80188 45.4393 10.8676 44.3228 12.1364C43.2063 13.3798 42.1151 14.5725 41.9121 14.8008C39.4507 17.4145 38.9178 18.328 38.6894 20.4088C38.4864 22.312 38.7909 22.3373 40.212 20.4849C42.3181 17.7698 47.1648 11.4005 47.8753 10.3601C48.3067 9.7765 49.0934 8.76149 49.6262 8.07635C50.3875 7.16283 50.5651 6.7822 50.3621 6.4777C49.9054 5.71643 49.6009 5.89406 48.1037 7.74647Z" fill="#254119"/>
<path d="M12.5527 7.01069C11.2586 7.94958 9.43152 9.72586 9.43152 10.005C9.43152 10.3349 11.8422 13.5322 13.111 14.8771C13.6185 15.4607 14.1767 15.816 14.4559 15.7652C15.1664 15.6383 15.4962 14.1412 15.2171 12.1365C14.9887 10.2587 13.8215 6.42706 13.517 6.42706C13.4155 6.42706 12.9841 6.68081 12.5527 7.01069Z" fill="#254119"/>
<path d="M52.0369 8.38088C51.3264 9.21827 49.8293 11.8573 48.5351 14.5217C47.0126 17.6937 46.023 21.4239 46.4544 22.4643C46.7589 23.3016 47.1649 23.2001 47.8754 22.0836C48.1799 21.6269 48.9919 20.4088 49.7024 19.3431C51.3772 16.9324 52.2907 15.0546 53.3057 12.0349L54.1177 9.64966L53.2803 8.78689C52.4683 7.97488 52.3922 7.9495 52.0369 8.38088Z" fill="#254119"/>
<path d="M16.5367 9.39591C16.5621 10.5632 17.3234 16.095 17.5264 16.6025C17.8816 17.5922 19.1504 18.4042 20.1401 18.3027C20.9267 18.2266 20.9774 18.1758 20.9267 17.2877C20.8506 16.2219 19.5818 13.5067 17.907 10.9184C16.8666 9.31979 16.5367 8.93915 16.5367 9.39591Z" fill="#254119"/>
<path d="M55.4118 11.6799C55.0312 12.4158 53.4325 17.3386 53.0773 18.8104C52.7981 19.9777 52.8235 20.2314 53.1534 20.5613C53.5087 20.9166 53.6355 20.8912 54.4222 20.409C55.7924 19.5717 58.6599 16.1206 58.6599 15.3086C58.6599 15.0548 55.9193 11.2485 55.7163 11.2485C55.6656 11.2485 55.5387 11.4515 55.4118 11.6799Z" fill="#254119"/>
<path d="M7.27465 12.2127C7.14777 12.3143 6.74176 12.771 6.41188 13.2531L5.82825 14.0905L7.04627 15.8161C8.34042 17.6177 12.8065 23.4794 14.3798 25.4587C15.6739 27.0574 18.0592 29.5188 18.3383 29.5188C18.4652 29.5188 18.6428 29.3665 18.719 29.1635C18.8712 28.7575 18.1607 24.8497 17.8055 24.0631C17.6532 23.7839 17.2726 22.7943 16.9427 21.8808C16.0292 19.4194 15.6232 18.8611 13.111 16.6535C10.6242 14.4458 7.70603 12.0097 7.60453 12.0097C7.55378 12.0097 7.4269 12.1112 7.27465 12.2127Z" fill="#254119"/>
<path d="M36.9893 15.4353C35.6952 16.7295 35.213 18.4043 34.7816 22.8703C34.4771 26.1945 34.604 26.905 35.4414 26.2199C36.2534 25.5601 36.5072 24.5197 36.6594 21.5254C36.7609 19.8507 37.0147 17.8206 37.2177 17.0086C37.6998 15.2577 37.6237 14.801 36.9893 15.4353Z" fill="#254119"/>
<path d="M44.9318 17.3131C41.3792 21.4239 39.2477 26.296 38.7148 31.5994C38.5625 33.2488 38.5625 33.325 39.07 33.325C40.3134 33.325 44.7034 26.6005 44.7034 24.7227C44.7034 24.2913 44.5765 23.4285 44.3989 22.7941C44.1451 21.8299 44.1705 21.3731 44.5511 19.9267C44.7795 18.9878 45.2109 17.7952 45.4647 17.2623C45.7438 16.7548 45.9214 16.3234 45.8707 16.3234C45.8199 16.3234 45.3885 16.7802 44.9318 17.3131Z" fill="#254119"/>
<path d="M3.82355 17.5923L3.51904 18.6327L4.88932 20.0791C8.112 23.4794 9.02551 24.266 10.6242 25.0019C12.4258 25.8647 13.0856 25.7124 12.1467 24.6974C6.10734 17.9983 4.73706 16.5773 4.45793 16.5773C4.28031 16.5773 3.9758 17.034 3.82355 17.5923Z" fill="#254119"/>
<path d="M59.5988 18.7087C59.4465 19.0893 56.0462 21.6522 54.2446 22.718C53.2296 23.3016 53.0519 23.5807 52.6713 24.8749C51.6055 28.5797 49.3471 32.3099 45.9722 35.9386C43.6376 38.4761 43.4854 39.0598 45.1348 38.9836C48.053 38.8568 50.1084 36.5983 54.5998 28.6305C56.8329 24.6973 58.33 22.4388 59.8526 20.8656C60.8422 19.8252 60.9437 19.6475 60.7153 19.0385C60.4362 18.3026 59.8272 18.125 59.5988 18.7087Z" fill="#254119"/>
<path d="M29.123 19.6731C29.0468 20.0029 28.92 21.1195 28.8438 22.1599C28.7677 23.2003 28.2856 25.687 27.8034 27.6917C27.3213 29.6964 26.9407 31.7518 26.9407 32.31C26.9407 33.4012 27.8034 36.3955 28.4124 37.3597C29.326 38.8569 30.6201 40.4302 30.9246 40.4302C31.1022 40.4302 31.4321 40.0495 31.6859 39.5928C32.0665 38.8569 32.1173 37.9434 32.0665 30.4576L32.0158 22.1599L30.8485 20.6881C29.4528 18.9879 29.2752 18.8864 29.123 19.6731Z" fill="#254119"/>
<path d="M18.313 20.6372C18.313 20.7641 18.5414 21.4746 18.8459 22.2105C19.4549 23.7838 22.1193 31.8278 22.1193 32.1323C22.1193 32.7667 22.9821 34.0862 23.3881 34.0862C23.9717 34.0862 24.1493 33.5787 24.124 32.1069C24.0986 29.6201 22.3984 22.718 21.561 21.703C21.2058 21.297 19.2265 20.3834 18.6682 20.3834C18.4652 20.3834 18.313 20.4849 18.313 20.6372Z" fill="#254119"/>
<path d="M2.14888 21.0434C1.97125 21.5001 1.94587 21.4747 3.62065 23.5301C4.25504 24.3168 5.80294 26.626 7.04634 28.656C11.9438 36.6492 12.9588 37.9688 14.4813 38.4002C16.1815 38.8569 16.1815 38.4002 14.4052 34.5685C11.8423 29.0366 9.76151 26.2453 5.90444 23.1749C5.27006 22.6928 4.35654 21.9061 3.84903 21.4494C2.78326 20.5358 2.37726 20.4343 2.14888 21.0434Z" fill="#254119"/>
<path d="M50.7682 21.2972C50.5398 21.5763 49.8039 22.6167 49.1188 23.6571C47.6217 25.9155 47.1903 26.5245 44.4497 30.407C39.806 37.0046 38.791 38.8062 39.5015 39.06C40.0598 39.2884 41.4554 38.0704 44.5259 34.6193C47.7485 31.0414 48.0784 30.61 49.3472 28.1993C50.21 26.5245 51.428 22.1092 51.2503 21.2464C51.1742 20.8912 51.1235 20.8912 50.7682 21.2972Z" fill="#254119"/>
<path d="M60.9183 23.0987C57.5434 26.8289 54.6252 31.5741 55.9448 31.2442C56.4776 31.1173 62.6946 26.6259 62.8469 26.2452C62.9991 25.8392 62.0349 22.4135 61.7304 22.4135C61.6289 22.4135 61.2736 22.7181 60.9183 23.0987Z" fill="#254119"/>
<path d="M0.956158 25.6362C0.550151 28.2245 0.524775 28.1991 3.95046 31.3964C8.23891 35.4057 8.94942 35.355 6.31037 31.168C4.25496 27.9453 1.7428 24.6973 1.28604 24.6973C1.20991 24.6973 1.05766 25.1287 0.956158 25.6362Z" fill="#254119"/>
<path d="M36.6341 28.0469C36.228 28.656 35.5683 29.7725 35.1623 30.5337L34.4264 31.9294V37.3851C34.4264 41.9781 34.4771 42.8408 34.7816 42.8408C34.9847 42.8408 35.3907 42.4602 35.6444 42.0034C36.0504 41.3183 36.1773 40.4048 36.3549 36.9283C36.5833 32.0309 36.7356 30.7114 37.2431 28.656C37.4461 27.8439 37.5729 27.1334 37.5222 27.0573C37.4461 27.0065 37.0654 27.4379 36.6341 28.0469Z" fill="#254119"/>
<path d="M13.0602 28.0469C14.329 31.0666 15.2932 33.2235 16.4859 35.6088C18.6428 40.0241 22.3476 44.947 23.2358 44.5917C23.794 44.3887 23.7686 44.3126 22.6267 40.4809C21.5356 36.9029 21.0281 35.6849 19.7593 33.8579C18.6682 32.2846 15.5724 29.0619 14.4559 28.3514C13.4155 27.6917 12.8572 27.5648 13.0602 28.0469Z" fill="#254119"/>
<path d="M59.2943 31.6757C57.4926 32.6907 55.285 34.0864 54.3968 34.7461C51.91 36.6239 51.707 37.5882 54.0162 36.6493C54.6759 36.3955 56.8582 35.5328 58.8629 34.7461C63.735 32.843 63.4812 33.0206 63.4812 31.6757C63.4812 30.3816 63.2782 29.7726 62.8722 29.7726C62.72 29.7979 61.1213 30.6353 59.2943 31.6757Z" fill="#254119"/>
<path d="M0.423295 31.5233C0.347169 31.6755 0.397919 32.995 0.575548 34.4668L0.880053 37.1312L2.55483 38.197C8.31506 41.8511 13.3648 44.3379 17.298 45.5305C18.6175 45.9365 20.0639 46.3933 20.4953 46.5202C21.2565 46.7739 22.1193 46.647 22.1193 46.2918C22.1193 46.0634 18.8712 43.9572 16.2068 42.4347C12.5274 40.3539 8.84794 37.8164 5.01625 34.7713C2.91009 33.0965 1.05768 31.6248 0.880053 31.4979C0.7278 31.371 0.524797 31.371 0.423295 31.5233Z" fill="#254119"/>
<path d="M60.4109 35.5327L57.9748 36.3955L57.4927 37.9688C56.8837 39.9988 55.5388 41.7244 51.2503 46.0889C46.7589 50.6565 46.6827 51.0118 50.6413 48.7787C54.879 46.3934 59.269 42.3334 62.4409 37.918C63.2022 36.8523 63.532 35.076 63.0499 34.7715C62.923 34.6954 61.7558 35.0506 60.4109 35.5327Z" fill="#254119"/>
<path d="M24.6569 38.2226C24.6569 40.1511 25.9003 45.4292 26.966 48.0683C28.0064 50.6058 29.3259 52.4075 30.0618 52.306C30.8738 52.2045 31.3306 50.6312 31.1783 48.4235C31.0261 46.292 30.3156 44.3127 29.0976 42.5872C28.6154 41.8767 27.5243 40.2526 26.6615 38.9585C25.7988 37.6897 25.0121 36.624 24.8852 36.624C24.7584 36.624 24.6569 37.3345 24.6569 38.2226Z" fill="#254119"/>
<path d="M50.8189 39.415C48.3575 40.2778 47.9768 40.5569 47.2156 42.1556C46.9111 42.8153 45.8199 44.5663 44.7795 46.0634C42.3181 49.6413 41.8106 50.8847 42.3942 51.8236C42.8256 52.5088 47.2663 48.4233 50.2099 44.617C51.301 43.196 53.5848 39.3897 53.5848 38.9837C53.5848 38.5269 53.2549 38.5777 50.8189 39.415Z" fill="#254119"/>
<path d="M42.7495 41.2168C40.9478 41.7751 40.6433 42.308 40.6433 44.744C40.6433 46.5457 41.0747 47.0532 42.039 46.4188C43.1301 45.7083 44.7795 43.0946 45.3378 41.2422C45.4646 40.7854 45.4139 40.6839 44.9064 40.7093C44.5765 40.7093 43.6122 40.9377 42.7495 41.2168Z" fill="#254119"/>
<path d="M2.19953 42.511C2.30103 42.8409 2.85929 44.1096 3.4683 45.3784L4.55944 47.6622L8.36576 49.3877C10.4465 50.3266 12.502 51.2147 12.9587 51.367C13.3901 51.5193 13.7454 51.7476 13.7454 51.8999C13.7454 52.0268 13.8469 52.0521 13.9991 51.976C14.126 51.8999 14.4812 51.9506 14.7857 52.1029C15.1918 52.3313 15.3948 52.3313 15.6231 52.1029C15.8261 51.8745 15.6739 51.6208 15.0141 51.0371C13.72 49.9206 9.38078 46.5203 8.112 45.6321C6.5641 44.5156 2.42791 41.9527 2.2249 41.9527C2.1234 41.9527 2.1234 42.2065 2.19953 42.511Z" fill="#254119"/>
<path d="M59.2181 44.2366C57.3911 45.7845 57.0359 46.2666 57.7717 46.2666C58.7106 46.2666 60.5884 45.0232 61.0198 44.1351C61.9079 42.2573 61.5781 42.2573 59.2181 44.2366Z" fill="#254119"/>
<path d="M36.9132 44.2618C36.1519 44.9976 35.2384 46.2664 34.7817 47.1546C34.1219 48.4995 33.9697 49.1338 33.8682 51.2654C33.6905 54.5388 33.9697 58.1929 34.4264 58.1929C34.604 58.1929 34.8324 57.8884 34.9339 57.4824C35.01 57.1017 35.6444 55.3762 36.3296 53.6253C38.8164 47.3068 39.6791 43.2214 38.6134 43.0184C38.4104 42.993 37.6237 43.5512 36.9132 44.2618Z" fill="#254119"/>
<path d="M12.096 46.0127C12.1721 46.165 13.111 46.9263 14.1768 47.7383C19.6832 51.9252 21.3073 52.8895 24.9613 54.2344C26.357 54.7165 26.7376 54.7926 27.0929 54.5135C27.3974 54.3105 27.4735 54.0314 27.3466 53.6C26.7376 51.367 22.2208 48.9563 13.6185 46.2411C11.8422 45.6829 11.893 45.6829 12.096 46.0127Z" fill="#254119"/>
<path d="M58.6345 47.6621C58.5584 47.7382 57.1374 48.2711 55.4626 48.8294C53.8132 49.413 52.1384 50.022 51.7831 50.225C50.9204 50.6564 50.6666 51.2908 51.1741 51.8491C51.5548 52.2551 54.1938 53.3716 54.7774 53.3716C55.3103 53.3716 59.0405 48.2965 58.8629 47.789C58.8121 47.6367 58.7106 47.5606 58.6345 47.6621Z" fill="#254119"/>
<path d="M39.6537 49.9966C39.1716 50.9609 37.8521 54.9702 37.8521 55.5538C37.8521 56.442 38.6894 56.3405 39.7806 55.3255L40.6941 54.4881L40.3896 52.0267C40.212 50.6818 40.0343 49.5652 39.9836 49.5652C39.9328 49.5652 39.806 49.7682 39.6537 49.9966Z" fill="#254119"/>
<path d="M7.40149 51.5699C7.40149 52.0013 10.0405 54.7165 12.0452 56.3151C13.1363 57.2033 15.0649 58.4974 16.3336 59.2079C18.5667 60.4767 18.6428 60.5021 19.4294 60.1468C19.8608 59.9438 21.1042 59.4109 22.1954 58.9542C26.0524 57.3555 25.7987 56.5435 21.2819 55.7822C16.5874 54.9956 13.4916 54.0821 9.98978 52.458C7.40149 51.24 7.40149 51.24 7.40149 51.5699Z" fill="#254119"/>
<path d="M45.287 53.2195C43.9168 53.8792 41.9121 55.6555 41.9121 56.2645C41.9121 56.6959 42.7495 56.8482 46.0991 57.0512C47.4947 57.1273 48.9919 57.2542 49.4232 57.3303C50.0576 57.4064 50.489 57.2288 51.6309 56.366C52.4175 55.757 53.0773 55.1988 53.0773 55.0973C53.0773 54.9958 52.113 54.4121 50.9458 53.7777C48.459 52.4075 47.3171 52.2806 45.287 53.2195Z" fill="#254119"/>
<path d="M25.1644 58.9796C21.5357 61.0858 21.282 61.2634 21.5103 61.4918C21.9671 61.9485 27.8542 63.2681 29.4275 63.2681H31.0007V61.644C31.0007 58.8781 30.1887 57.4571 28.5901 57.4317C28.1079 57.4317 26.8392 58.0154 25.1644 58.9796Z" fill="#254119"/>
<path d="M38.3089 58.9542C36.964 59.6901 34.2996 62.2276 34.2996 62.8112C34.2996 63.2426 34.4518 63.268 35.6445 63.1665C38.4104 62.9128 45.9215 60.5275 46.1499 59.8423C46.226 59.5632 41.0241 58.4213 39.8822 58.4467C39.5269 58.472 38.8164 58.7004 38.3089 58.9542Z" fill="#254119"/>
</g>
<defs>
<clipPath id="clip0_850_49">
<rect width="64" height="64" fill="white"/>
</clipPath>
</defs>
</svg>
